# xmcd CD database file
#
# Track frame offsets:
#	150
#	55514
#	61492
#	106825
#	164041
#	167841
#	186348
#	217370
#	226352
#
# Disc length: 3855 seconds
#
# Revision: 0
# Processed by: cddbd v1.5.1PL2 Copyright (c) Steve Scherf et al.
# Submitted via: CDex 1.70beta1
#
DISCID=830f0d09
DTITLE=Alex Skolnick - Cafe Petit Campus, Montreal, Quebec 2004-08-21 CD 2
DYEAR=2004
DGENRE=Jazz
TTITLE0=Highway Star (Deep Purple)
TTITLE1=Alex Talking
TTITLE2=Both Feet In (Zebroski)
TTITLE3=Scorched (Zebroski)
TTITLE4=Alex Talking
TTITLE5=Still Loving You (Scorpions)
TTITLE6=Electric Eye (Judas Priest)
TTITLE7=Alex Talking, crowd cheers, encore
TTITLE8=War Pigs (Black Sabbath)
EXTD=YEAR: 2004
EXTT0=
EXTT1=
EXTT2=
EXTT3=
EXTT4=
EXTT5=
EXTT6=
EXTT7=
EXTT8=
PLAYORDER=
